<svg width="1024" height="1024" viewBox="0 0 1024 1024" fill="none" xmlns="http://www.w3.org/2000/svg">
<path d="M832 160H192C138.981 160 96 202.981 96 256V768C96 821.019 138.981 864 192 864H832C885.019 864 928 821.019 928 768V256C928 202.981 885.019 160 832 160Z" stroke="white" stroke-width="64" stroke-linejoin="round"/>
<path d="M672 416C707.346 416 736 387.346 736 352C736 316.654 707.346 288 672 288C636.654 288 608 316.654 608 352C608 387.346 636.654 416 672 416Z" stroke="white" stroke-width="64" stroke-miterlimit="10"/>
<path d="M608 671.58L426.68 490.6C415.142 479.065 399.634 472.371 383.326 471.888C367.018 471.405 351.141 477.168 338.94 488L96 704M448 864L694.68 617.32C705.961 606.016 721.061 599.338 737.014 598.598C752.967 597.858 768.621 603.109 780.9 613.32L928 736" stroke="white" stroke-width="64" stroke-linecap="round" stroke-linejoin="round"/>
</svg>
